<svg width="30" height="30" viewBox="0 0 30 30" fill="none" xmlns="http://www.w3.org/2000/svg">
<path d="M15 0C6.729 0 0 6.729 0 15C0 23.271 6.729 30 15 30C17.199 30 19.4415 29.4435 21.663 28.344L20.3355 25.6545C18.5295 26.547 16.734 27 15 27C8.3835 27 3 21.6165 3 15C3 8.3835 8.3835 3 15 3C21.6165 3 27 8.3835 27 15V16.5C27 17.538 26.5305 19.5 24.75 19.5C22.656 19.5 22.509 16.7715 22.5 16.5V9H19.5V9.0375C18.2089 8.04592 16.6279 7.50575 15 7.5C10.8645 7.5 7.5 10.8645 7.5 15C7.5 19.1355 10.8645 22.5 15 22.5C17.175 22.5 19.122 21.5535 20.493 20.0685C21.279 21.4035 22.605 22.5 24.75 22.5C28.1595 22.5 30 19.4085 30 16.5V15C30 6.729 23.271 0 15 0ZM15 19.5C12.519 19.5 10.5 17.481 10.5 15C10.5 12.519 12.519 10.5 15 10.5C17.481 10.5 19.5 12.519 19.5 15C19.5 17.481 17.481 19.5 15 19.5Z" fill="#13563E"/>
</svg>
