<svg width="176" height="177" viewBox="0 0 176 177" fill="none" xmlns="http://www.w3.org/2000/svg">
<g clip-path="url(#clip0_449_18908)">
<path opacity="0.2" d="M122.449 100.378C121.813 101.15 121.814 101.151 121.814 101.151L121.815 101.152L121.818 101.154L121.823 101.158L121.838 101.17C121.85 101.179 121.864 101.191 121.882 101.204C121.918 101.231 121.967 101.267 122.029 101.31C122.136 101.384 122.283 101.48 122.47 101.588M122.449 100.378L122.47 101.588M122.449 100.378C122.449 100.378 125.6 102.971 132.286 101.784M122.449 100.378L132.286 101.784M122.47 101.588C122.281 101.713 122.048 101.86 121.772 102.021C120.946 102.504 119.735 103.118 118.169 103.661C115.033 104.75 110.484 105.552 104.777 104.469C98.8779 103.351 95.6512 99.7509 94.2551 95.5993C92.8813 91.5138 93.281 86.9237 94.4902 83.6346C95.0045 82.2354 95.4955 80.957 95.9976 79.6497C97.736 75.1231 99.6073 70.2507 103.042 58.8218C104.634 53.5257 106.774 48.9977 109.71 45.81C112.678 42.5882 116.446 40.7566 121.16 40.8777C125.633 40.9926 128.8 41.6947 131.299 43.6179C133.772 45.5204 135.442 48.5082 137.21 52.7935C138.675 56.3433 139.153 59.6949 139.689 63.4478L139.715 63.6289C140.262 67.4634 140.894 71.807 142.669 77.4627C143.565 80.3202 144.338 82.6112 144.976 84.4994L145.022 84.6378C145.636 86.4533 146.13 87.9148 146.48 89.1378C147.206 91.6789 147.362 93.3587 146.656 95.3374C145.908 97.4365 144.353 98.2614 143.028 98.5257C142.384 98.654 141.796 98.6528 141.373 98.6218C141.344 98.6196 141.315 98.6173 141.287 98.6149C141.257 98.6483 141.226 98.6829 141.193 98.7187C140.865 99.0743 140.366 99.5411 139.651 100.04C138.217 101.039 135.937 102.152 132.461 102.769C128.961 103.39 126.341 103.029 124.566 102.482C123.681 102.21 123.013 101.893 122.556 101.637C122.527 101.62 122.498 101.604 122.47 101.588ZM132.286 101.784C138.972 100.597 140.857 97.545 140.857 97.545L132.286 101.784Z" fill="black" stroke="white" stroke-width="2" stroke-miterlimit="10" stroke-linecap="round" stroke-linejoin="round"/>
<path d="M33.8788 18.4688C33.8788 17.6576 33.2139 17 32.3938 17H19.44C18.6198 17 17.955 17.6576 17.955 18.4688V62.5816C17.955 63.3928 18.6198 64.0505 19.44 64.0505H32.3938C33.2139 64.0505 33.8787 64.7081 33.8787 65.5193V93.6259C33.8787 94.4372 33.2139 95.0948 32.3938 95.0948H20.3375C19.5173 95.0948 18.8525 95.7524 18.8525 96.5636V109.377C18.8525 110.188 19.5173 110.846 20.3375 110.846H33.2913C34.1114 110.846 34.7763 110.188 34.7763 109.377V97.0211C34.7763 96.2098 35.4411 95.5522 36.2613 95.5522H48.3176C49.1377 95.5522 49.8025 96.2098 49.8025 97.0211V109.834C49.8025 110.646 50.4674 111.303 51.2875 111.303H64.2413C65.0615 111.303 65.7263 110.646 65.7263 109.834V97.0211C65.7263 96.2098 66.3912 95.5522 67.2113 95.5522H94.0178C94.8379 95.5522 95.5028 94.8946 95.5028 94.0834V81.2702C95.5028 80.459 96.1676 79.8013 96.9877 79.8013H109.942C110.762 79.8013 111.427 79.1437 111.427 78.3325V49.7684C111.427 48.9572 110.762 48.2996 109.942 48.2996H96.9877C96.1676 48.2996 95.5028 47.642 95.5028 46.8307V34.4279C95.5028 33.6167 96.1676 32.959 96.9877 32.959H109.143C109.963 32.959 110.628 32.3014 110.628 31.4902V18.677C110.628 17.8658 109.963 17.2082 109.143 17.2082H96.1891C95.369 17.2082 94.7041 17.8658 94.7041 18.677V31.0799C94.7041 31.8911 94.0393 32.5487 93.2192 32.5487H67.2113C66.3912 32.5487 65.7263 31.8911 65.7263 31.0799V18.646C65.7263 17.8347 65.0615 17.1771 64.2413 17.1771H51.2875C50.4674 17.1771 49.8025 17.8347 49.8025 18.646V31.0799C49.8025 31.8911 49.1377 32.5487 48.3176 32.5487H35.3637C34.5436 32.5487 33.8788 31.8911 33.8788 31.0799V18.4688Z" fill="#FCBFC8"/>
<path d="M15.9238 71.7272C15.9238 70.916 15.2589 70.2584 14.4388 70.2584H1.48497C0.664844 70.2584 0 70.916 0 71.7272V84.5404C0 85.3516 0.664844 86.0093 1.48497 86.0093H14.4388C15.2589 86.0093 15.9238 85.3516 15.9238 84.5404V71.7272Z" fill="#FCBFC8"/>
<path d="M107.143 70.6963H176L121.429 124.675H52.5715L107.143 70.6963Z" fill="#FFE5B2"/>
<path d="M95.4288 83.9796C97.7145 77.7621 99.5615 73.8773 104 59.1096C107.143 48.6531 112.334 41.6513 121.134 41.8774C129.934 42.1035 132.764 44.6403 136.286 53.1749C139.152 60.1202 138.114 66.2881 141.714 77.7621C145.314 89.2362 146.924 91.6101 145.714 95.0015C144.505 98.3928 140.857 97.545 140.857 97.545C140.857 97.545 138.972 100.597 132.286 101.784C125.6 102.971 122.449 100.378 122.449 100.378C122.449 100.378 115.991 105.578 104.963 103.487C93.9343 101.396 93.143 90.1971 95.4288 83.9796Z" fill="black"/>
<path d="M130.025 58.6551L131.582 58.9085C132.08 59.0352 132.454 59.2886 132.765 59.6053C133.139 57.6416 133.114 52.6128 130.025 49.4459C122.564 41.7951 109.786 48.0877 110.929 56.8486C114.072 52.0831 121.284 47.2701 126.576 51.346C129.702 53.7534 130.025 58.6551 130.025 58.6551Z" fill="#24BC85"/>
<path d="M176 70.6963L121.428 124.393H41.9998L41.7141 152.654H150.286L150.571 124.675L176 99.5227V70.6963Z" fill="#FDBF85"/>
<path d="M110.48 72.4485C110.48 72.4485 111.337 70.1311 112.023 69.4529C113.623 67.9268 116.994 66.9659 120.823 67.7572C124.651 68.5485 129.108 70.3007 127.223 74.2007C125.451 78.1008 110.48 72.4485 110.48 72.4485Z" fill="#FCBFC8"/>
<path d="M114.546 58.7158C114.546 57.6064 113.636 56.707 112.515 56.707H108.317C107.195 56.707 106.286 57.6064 106.286 58.7158V60.8259C106.286 61.9353 107.195 62.8346 108.317 62.8346H112.515C113.636 62.8346 114.546 61.9353 114.546 60.8259V58.7158Z" fill="#ED9068"/>
<path fill-rule="evenodd" clip-rule="evenodd" d="M109.546 59.4534H112.08L112.08 60.0746L109.546 60.0746L109.546 59.4534ZM112.08 58.1143C112.828 58.1143 113.434 58.7138 113.434 59.4534V60.0746C113.434 60.8142 112.828 61.4137 112.08 61.4137H109.546C108.798 61.4137 108.192 60.8142 108.192 60.0746V59.4534C108.192 58.7138 108.798 58.1143 109.546 58.1143H112.08Z" fill="#BE5037"/>
<path d="M128.312 58.7158C128.312 57.6064 129.221 56.707 130.343 56.707H134.541C135.663 56.707 136.572 57.6064 136.572 58.7158V60.8259C136.572 61.9353 135.663 62.8346 134.541 62.8346H130.343C129.221 62.8346 128.312 61.9353 128.312 60.8259V58.7158Z" fill="#ED9068"/>
<path fill-rule="evenodd" clip-rule="evenodd" d="M133.312 59.4534H130.778L130.778 60.0746L133.312 60.0746L133.312 59.4534ZM130.778 58.1143C130.03 58.1143 129.424 58.7138 129.424 59.4534V60.0746C129.424 60.8142 130.03 61.4137 130.778 61.4137H133.312C134.06 61.4137 134.666 60.8142 134.666 60.0746V59.4534C134.666 58.7138 134.06 58.1143 133.312 58.1143H130.778Z" fill="#BE5037"/>
<path d="M132.442 60.1112C132.442 66.1275 127.511 71.0046 121.429 71.0046C115.347 71.0046 110.416 66.1275 110.416 60.1112C110.416 54.0949 115.347 49.2178 121.429 49.2178C127.511 49.2178 132.442 54.0949 132.442 60.1112Z" fill="#ED9068"/>
<path fill-rule="evenodd" clip-rule="evenodd" d="M125.936 54.1182C126.454 54.2515 126.959 54.4807 127.634 54.8934C127.951 55.0879 128.369 54.9906 128.565 54.6761C128.762 54.3616 128.664 53.949 128.346 53.7545C127.603 53.3001 126.97 53.0007 126.277 52.8222C125.588 52.645 124.879 52.5971 124 52.5971C123.627 52.5971 123.323 52.8968 123.323 53.2666C123.323 53.6364 123.627 53.9362 124 53.9362C124.836 53.9363 125.412 53.9834 125.936 54.1182Z" fill="#4F1808"/>
<path fill-rule="evenodd" clip-rule="evenodd" d="M115.601 53.1132C116.378 52.9958 117.02 52.7877 117.304 52.5801C117.604 52.3602 118.028 52.4229 118.25 52.7202C118.473 53.0175 118.409 53.4368 118.109 53.6567C117.544 54.0702 116.619 54.3141 115.806 54.4369C114.982 54.5615 114.072 54.5911 113.474 54.4478C113.111 54.3606 112.888 53.9986 112.976 53.6392C113.064 53.2799 113.43 53.0592 113.793 53.1464C114.134 53.228 114.835 53.2289 115.601 53.1132Z" fill="#4F1808"/>
<path d="M119.164 58.6156C119.245 58.294 119.537 58.0684 119.872 58.0684C120.207 58.0684 120.5 58.294 120.581 58.6156L121.015 60.3338C121.203 61.0771 121.298 61.8403 121.298 62.6064V63.4272C121.298 64.2061 120.66 64.8374 119.872 64.8374C119.085 64.8374 118.447 64.2061 118.447 63.4272V62.6064C118.447 61.8403 118.542 61.0771 118.729 60.3338L119.164 58.6156Z" fill="#BE5037"/>
<path fill-rule="evenodd" clip-rule="evenodd" d="M114.029 59.2571C113.762 59.2943 113.477 59.3781 113.08 59.5444C112.688 59.7083 112.235 59.5268 112.07 59.139C111.904 58.7513 112.088 58.3041 112.48 58.1402C112.947 57.9446 113.367 57.8097 113.814 57.7475C114.262 57.6851 114.697 57.7012 115.19 57.7642C115.706 57.83 116.151 57.9302 116.592 58.1146C117.03 58.2977 117.429 58.5494 117.869 58.8793C118.208 59.1337 118.275 59.6119 118.017 59.9473C117.76 60.2827 117.277 60.3483 116.938 60.0939C116.554 59.8058 116.268 59.6344 115.992 59.5189C115.719 59.4046 115.42 59.3306 114.993 59.2761C114.582 59.2237 114.295 59.22 114.029 59.2571Z" fill="white"/>
<path fill-rule="evenodd" clip-rule="evenodd" d="M126.883 59.2571C127.15 59.2943 127.435 59.3781 127.833 59.5444C128.225 59.7083 128.677 59.5268 128.842 59.139C129.008 58.7513 128.825 58.3041 128.432 58.1402C127.965 57.9446 127.545 57.8097 127.098 57.7475C126.651 57.6851 126.215 57.7012 125.722 57.7642C125.206 57.83 124.761 57.9302 124.32 58.1146C123.882 58.2977 123.483 58.5494 123.043 58.8793C122.704 59.1337 122.638 59.6119 122.895 59.9473C123.152 60.2827 123.635 60.3483 123.974 60.0939C124.358 59.8058 124.644 59.6344 124.92 59.5189C125.194 59.4046 125.493 59.3306 125.919 59.2761C126.33 59.2237 126.617 59.22 126.883 59.2571Z" fill="white"/>
<path fill-rule="evenodd" clip-rule="evenodd" d="M114.96 59.272C115.31 58.9416 115.514 58.4647 115.477 57.95C115.474 57.9003 115.468 57.8513 115.46 57.8031C115.372 57.7888 115.282 57.7759 115.19 57.7642C114.697 57.7012 114.261 57.6851 113.814 57.7475C113.367 57.8097 112.947 57.9446 112.479 58.1402C112.345 58.1963 112.235 58.2857 112.156 58.3945C112.258 58.9088 112.598 59.3313 113.051 59.5557C113.06 59.5522 113.07 59.5484 113.079 59.5444C113.477 59.3781 113.761 59.2943 114.029 59.2571C114.287 59.221 114.567 59.2236 114.96 59.272Z" fill="black"/>
<path fill-rule="evenodd" clip-rule="evenodd" d="M125.852 57.749C125.809 57.7539 125.766 57.7591 125.722 57.7647C125.206 57.8305 124.761 57.9308 124.32 58.1151C123.882 58.2983 123.483 58.5499 123.043 58.8798C122.977 58.9293 122.921 58.9872 122.876 59.0508C122.961 59.5501 123.272 59.9799 123.708 60.2236C123.802 60.1988 123.892 60.156 123.974 60.0945C124.358 59.8064 124.644 59.6349 124.92 59.5194C125.193 59.4051 125.492 59.3311 125.919 59.2767C125.998 59.2666 126.072 59.2584 126.142 59.2519C126.176 59.138 126.199 59.0187 126.208 58.8952C126.239 58.4657 126.102 58.0626 125.852 57.749Z" fill="black"/>
<path d="M88.4226 93.1352L87.9083 92.4004C87.2226 91.3264 87.1654 89.9134 87.8511 88.8395C88.2511 88.1612 88.6511 87.4264 88.8797 86.6351C89.5083 84.7133 89.5083 83.7524 89.5083 83.7524C89.5083 83.7524 79.1083 85.109 71.3368 79.2872C63.5082 73.4654 66.3082 65.8348 74.0225 62.6696C81.7368 59.5043 95.3368 59.0521 95.3368 59.0521L96.1368 68.6044C96.1368 68.6044 93.8511 68.8305 91.1654 69.3392C88.4797 69.8479 85.6226 70.7523 85.6226 70.7523C85.6226 70.7523 86.8226 71.8262 92.194 71.7132C97.394 71.5436 105.565 70.5262 117.623 71.5436C129.68 72.561 134.708 73.5219 139.337 75.7828C143.908 78.0437 149.737 82.1133 152.08 81.0959C157.051 78.8915 148.194 67.474 148.194 67.474L156.023 58.7695C156.023 58.7695 169.508 74.2567 166.765 84.9959C164.194 95.0569 154.651 96.583 146.08 93.983C138.48 91.6656 133.68 89.009 133.68 89.009C133.68 89.009 132.08 91.2699 127.108 95.9613C124.88 98.0526 123.108 99.5787 121.965 100.54C120.994 101.331 119.737 101.727 118.48 101.614L116.423 101.444L88.4226 93.1352Z" fill="#FF6363"/>
<path d="M148.251 67.3046C143.966 63.6306 144.537 59.9567 144.537 59.9567C144.537 59.9567 141.337 59.335 140.137 56.6784C138.937 54.0219 140.423 52.8349 140.423 52.8349C140.423 52.8349 140.137 51.5349 140.537 50.4609C140.994 49.1044 142.08 48.7087 142.08 48.7087C142.08 48.7087 142.023 48.4827 142.08 47.9174C142.137 47.3522 142.423 46.8435 142.423 46.8435L141.371 47.2957C140.457 47.8044 139.314 47.5783 138.571 46.8435C137.714 45.9391 137.714 44.4696 138.629 43.5652C139.543 42.6608 142.308 40.8521 143.966 40.3999C145.623 39.9478 147.623 41.3043 150.137 42.7739C152.594 44.2435 154.708 44.6391 155.337 47.4087C156.423 52.3827 156.08 58.6567 156.08 58.6567L148.251 67.3046Z" fill="#ED9068"/>
<path fill-rule="evenodd" clip-rule="evenodd" d="M145.271 56.9151C145.633 57.0621 145.887 57.2506 146.059 57.4204C146.146 57.5066 146.21 57.5864 146.256 57.6512C146.279 57.6836 146.297 57.7123 146.311 57.7361C146.319 57.748 146.325 57.7587 146.33 57.7681L146.337 57.7812L146.34 57.787L146.341 57.7897L146.342 57.791L146.342 57.7917C146.342 57.792 146.343 57.7923 145.737 58.0917L146.343 57.7923C146.449 58.0027 146.436 58.2528 146.308 58.4512L145.108 60.3165C144.907 60.6284 144.489 60.7204 144.174 60.5219C143.858 60.3233 143.765 59.9095 143.966 59.5975L144.864 58.2024C144.828 58.1841 144.787 58.1658 144.743 58.1482C144.725 58.1413 144.708 58.1337 144.691 58.1254C144.517 58.0393 144.334 58.0098 144.186 58.0049C144.113 58.0026 144.055 58.0062 144.017 58.0099C143.998 58.0118 143.986 58.0136 143.98 58.0145C143.978 58.0147 143.978 58.0148 143.977 58.0149C143.613 58.083 143.26 57.8485 143.188 57.4883C143.114 57.1256 143.352 56.7729 143.719 56.7004L143.851 57.3569C143.719 56.7004 143.718 56.7004 143.719 56.7004L143.72 56.7L143.723 56.6996L143.727 56.6987L143.74 56.6965C143.749 56.6948 143.761 56.6929 143.774 56.6908C143.802 56.6866 143.838 56.6818 143.882 56.6774C143.97 56.6688 144.089 56.6619 144.231 56.6665C144.505 56.6756 144.883 56.7287 145.271 56.9151Z" fill="#BE5037"/>
<path fill-rule="evenodd" clip-rule="evenodd" d="M147.731 46.2567C146.713 45.9589 145.591 45.7122 144.868 45.7598C144.237 45.8015 143.772 46.1215 143.446 46.4671C143.284 46.6392 143.164 46.8097 143.085 46.9363C143.046 46.999 143.019 47.0495 143.002 47.082C142.993 47.0982 142.987 47.1098 142.984 47.1161L142.982 47.1211C142.828 47.4563 142.429 47.6057 142.089 47.4549C141.748 47.3037 141.595 46.9075 141.748 46.5701L142.349 46.8365C141.748 46.5701 141.748 46.5703 141.748 46.5701L141.748 46.569L141.749 46.5678L141.75 46.5648L141.754 46.5572L141.764 46.535C141.773 46.5171 141.785 46.4934 141.8 46.4646C141.83 46.407 141.874 46.3285 141.931 46.2359C142.046 46.0515 142.219 45.8052 142.456 45.5534C142.93 45.0511 143.694 44.4951 144.778 44.4237C145.769 44.3583 147.104 44.6768 148.115 44.9725C148.636 45.1251 149.102 45.281 149.437 45.3987C149.604 45.4576 149.74 45.5072 149.834 45.5422C149.881 45.5598 149.918 45.5737 149.944 45.5834L149.973 45.5946L149.981 45.5977L149.984 45.5988C149.984 45.5989 149.985 45.599 149.737 46.2222L149.984 45.5988C150.332 45.7341 150.504 46.1228 150.367 46.467C150.23 46.8112 149.838 46.9806 149.49 46.8454C149.49 46.8454 149.49 46.8455 149.49 46.8454L149.488 46.8449L149.482 46.8427L149.458 46.8332C149.435 46.8247 149.402 46.812 149.358 46.7957C149.271 46.7632 149.143 46.7165 148.984 46.6606C148.665 46.5487 148.223 46.4008 147.731 46.2567Z" fill="#BE5037"/>
<path fill-rule="evenodd" clip-rule="evenodd" d="M142.398 49.3227L142.397 49.3233L142.396 49.3241L142.394 49.3249M148.814 50.3293C148.814 50.3293 148.815 50.3293 148.814 50.3293Z" fill="#BE5037"/>
<path d="M64.3656 124.845L72.4799 99.7486C57.3941 92.4572 45.6798 87.5963 35.2227 88.5006C24.7655 89.405 19.2227 98.8442 20.137 107.04C21.0512 115.236 26.7655 124.505 32.0798 131.91C37.3941 139.371 40.3655 142.819 40.3655 142.819L68.0798 140.84C68.0798 140.84 64.5941 135.923 60.537 130.214C56.4798 124.505 53.737 119.927 53.737 119.927C53.737 119.927 57.5656 122.188 64.3656 124.845Z" fill="#BACBF7"/>
<path fill-rule="evenodd" clip-rule="evenodd" d="M85.3939 146.206C84.4447 146.206 83.6752 146.967 83.6752 147.906C83.6752 148.845 84.4447 149.606 85.3939 149.606C86.3431 149.606 87.1126 148.845 87.1126 147.906C87.1126 146.967 86.3431 146.206 85.3939 146.206ZM82.9983 147.906C82.9983 146.597 84.0708 145.536 85.3939 145.536C86.717 145.536 87.7895 146.597 87.7895 147.906C87.7895 149.214 86.717 150.275 85.3939 150.275C84.0708 150.275 82.9983 149.214 82.9983 147.906Z" fill="black"/>
<path d="M26.376 159.154C26.376 159.154 25.6331 154.971 29.2902 150.958C32.9474 146.945 40.3188 142.762 40.3188 142.762L68.0331 140.784C68.0331 140.784 70.0331 143.667 70.776 148.076C71.5189 152.428 70.776 159.154 70.776 159.154H26.376Z" fill="#24BC85"/>
<path fill-rule="evenodd" clip-rule="evenodd" d="M71.031 155.763C70.9336 157.727 70.776 159.154 70.776 159.154L26.376 159.154C26.3739 159.143 25.719 155.423 28.7137 151.637L45.0616 151.637C47.5187 151.637 48.8901 153.898 49.633 155.763H71.031Z" fill="#E6E6E6"/>
<path fill-rule="evenodd" clip-rule="evenodd" d="M63.1083 146.206C62.1591 146.206 61.3896 146.967 61.3896 147.906C61.3896 148.845 62.1591 149.606 63.1083 149.606C64.0575 149.606 64.8269 148.845 64.8269 147.906C64.8269 146.967 64.0575 146.206 63.1083 146.206ZM60.7126 147.906C60.7126 146.597 61.7852 145.536 63.1083 145.536C64.4313 145.536 65.5039 146.597 65.5039 147.906C65.5039 149.214 64.4313 150.275 63.1083 150.275C61.7852 150.275 60.7126 149.214 60.7126 147.906Z" fill="black"/>
<path fill-rule="evenodd" clip-rule="evenodd" d="M142.969 51.4311C142.977 51.4308 142.986 51.4307 142.994 51.4307C144.479 51.4307 145.796 51.8121 146.733 52.1858C147.203 52.3735 147.584 52.5616 147.849 52.7042C147.982 52.7756 148.087 52.8359 148.159 52.8793C148.196 52.901 148.224 52.9186 148.245 52.9312L148.269 52.9465L148.276 52.9512L148.279 52.9528L148.28 52.9534C148.28 52.9536 148.28 52.9539 147.908 53.5133L148.28 52.9539C148.593 53.1572 148.679 53.5724 148.474 53.8813C148.269 54.1899 147.849 54.2757 147.537 54.0733C147.537 54.0733 147.537 54.0733 147.537 54.0733L147.537 54.0729C147.536 54.0728 147.537 54.0729 147.537 54.0729L147.535 54.072L147.522 54.0636C147.509 54.0556 147.488 54.0428 147.46 54.0259C147.403 53.992 147.317 53.9419 147.203 53.8808C146.975 53.7585 146.642 53.5933 146.227 53.4278C145.395 53.096 144.259 52.772 143.007 52.7698C142.343 52.796 141.787 52.9669 141.396 53.1325C141.201 53.2156 141.049 53.2961 140.949 53.3538C140.9 53.3825 140.863 53.4054 140.841 53.4198C140.83 53.4269 140.823 53.432 140.819 53.4345C140.818 53.4353 140.817 53.4359 140.816 53.4362C140.816 53.4363 140.816 53.4362 140.816 53.4362L140.818 53.4353L140.819 53.4345M140.423 52.8916C140.026 52.3487 140.026 52.3486 140.027 52.3485L140.028 52.3476L140.03 52.3461L140.035 52.3425L140.05 52.3321C140.062 52.3238 140.078 52.313 140.099 52.3C140.139 52.2739 140.195 52.239 140.266 52.198C140.407 52.1161 140.609 52.0094 140.863 51.9017C141.37 51.6868 142.095 51.4631 142.969 51.4311" fill="#BE5037"/>
<path d="M150.194 71.2619L159.623 62.5009C157.908 60.0704 156.48 58.2617 156.48 58.2617L147.337 67.5879C147.337 67.5879 148.937 69.2836 150.194 71.2619Z" fill="#89F0BE"/>
<path fill-rule="evenodd" clip-rule="evenodd" d="M153.685 78.6415C154.046 78.738 154.259 79.1056 154.162 79.4626C153.544 81.7246 152.334 82.917 151.098 83.4607C150.756 83.6109 150.356 83.4587 150.204 83.1208C150.052 82.7828 150.206 82.3871 150.548 82.237C151.368 81.8763 152.33 81.0339 152.855 79.1132C152.952 78.7562 153.324 78.545 153.685 78.6415Z" fill="#D43E51"/>
<path fill-rule="evenodd" clip-rule="evenodd" d="M85.8692 71.2823L85.8699 71.2821C85.8699 71.2821 85.87 71.2821 85.8699 71.2821L85.8692 71.2823C85.8691 71.2824 85.8692 71.2823 85.8692 71.2823ZM85.8699 71.2821L85.8692 71.2823L85.8592 71.2853C85.8496 71.2882 85.8339 71.2931 85.8126 71.3001C85.7699 71.3139 85.7049 71.3359 85.6222 71.3665C85.4564 71.4278 85.2218 71.5228 84.954 71.6552C84.4114 71.9236 83.768 72.3283 83.2764 72.8876C83.0311 73.1666 82.6035 73.1961 82.3214 72.9535C82.0393 72.7108 82.0094 72.2879 82.2547 72.0088C82.906 71.2681 83.7197 70.7685 84.3485 70.4574C84.6665 70.3002 84.9461 70.1868 85.1482 70.1121C85.2494 70.0747 85.3318 70.0467 85.3904 70.0277C85.4197 70.0182 85.4432 70.0108 85.4602 70.0057L85.4807 69.9995L85.4872 69.9976L85.4895 69.9969L85.4904 69.9967C85.4906 69.9966 85.4911 69.9965 85.6705 70.6077L85.4911 69.9965C85.8501 69.8933 86.2257 70.0977 86.3299 70.4528C86.434 70.8075 86.2282 71.1785 85.8699 71.2821Z" fill="#D43E51"/>
<path fill-rule="evenodd" clip-rule="evenodd" d="M97.6952 73.7117C97.8103 74.0635 97.6152 74.441 97.2595 74.5549C95.3495 75.1661 93.1434 76.1804 91.9048 78.0692C91.2885 79.0089 90.8659 80.3935 90.598 81.6001C90.4664 82.1929 90.3762 82.723 90.3189 83.1047C90.2904 83.2952 90.2701 83.4481 90.2571 83.5524C90.2506 83.6045 90.2459 83.6445 90.2429 83.6709L90.2396 83.7003L90.2389 83.707L90.2388 83.7082C90.2004 84.076 89.8679 84.3436 89.4961 84.3057C89.1242 84.2678 88.8538 83.9389 88.892 83.5711L89.5654 83.6397C88.892 83.5711 88.892 83.5712 88.892 83.5711L88.8925 83.5668L88.8936 83.5569L88.8976 83.521C88.9011 83.4901 88.9063 83.4455 88.9134 83.3884C88.9277 83.2744 88.9494 83.1106 88.9797 82.9082C89.0404 82.5038 89.1359 81.9424 89.2757 81.3128C89.5506 80.0748 90.0137 78.492 90.7689 77.3404C92.2732 75.0465 94.867 73.913 96.8428 73.2807C97.1985 73.1669 97.5801 73.3599 97.6952 73.7117Z" fill="#D43E51"/>
<path d="M96.1367 68.4925C98.9367 68.4925 103.622 64.5925 102.994 56.6793C102.708 52.8358 103.908 50.1227 101.451 49.4445C98.9938 48.7662 93.2571 51.8749 91.9999 52.8923C90.7428 53.9097 88.7999 56.2837 88.5714 58.6011C88.3999 60.4663 88.457 62.8965 89.9999 65.8922C91.1427 68.0966 93.3367 68.4925 96.1367 68.4925Z" fill="#ED9068"/>
<path d="M48.6509 159.154C48.6509 159.154 47.908 154.971 51.5652 150.958C55.2223 146.945 62.5937 142.762 62.5937 142.762L90.308 140.784C90.308 140.784 92.308 143.667 93.0509 148.076C93.7938 152.428 93.0509 159.154 93.0509 159.154H48.6509Z" fill="#24BC85"/>
<path fill-rule="evenodd" clip-rule="evenodd" d="M93.3059 155.763C93.2085 157.727 93.0509 159.154 93.0509 159.154L48.6509 159.154C48.6488 159.143 47.9939 155.423 50.9886 151.637L67.3365 151.637C69.7936 151.637 71.165 153.898 71.9079 155.763H93.3059Z" fill="#E6E6E6"/>
<path d="M115.166 40.8525C115.223 40.9091 115.737 42.1525 115.794 42.2656C115.851 42.3786 115.851 42.5482 115.737 42.6612L103.794 57.8093C103.337 58.3745 102.651 58.6571 101.909 58.6571L92.5942 58.3745C92.4228 58.3745 92.3085 58.2614 92.2514 58.1484L91.5942 56.6506L115.166 40.8525Z" fill="#15513C"/>
<path d="M114.823 40.6264L105.509 40.3438C104.766 40.3438 104.08 40.6264 103.623 41.1916L91.68 56.3396C91.4514 56.6222 91.68 56.9613 91.9657 56.9613L101.28 57.244C102.023 57.244 102.709 56.9613 103.166 56.3961L115.109 41.2481C115.337 41.022 115.166 40.6264 114.823 40.6264Z" fill="#24BC85"/>
<path d="M111.28 42.2657L109.28 44.8092C109.108 45.0353 109.28 45.4309 109.565 45.4309C109.965 45.4309 110.365 45.2613 110.594 44.9787L112.594 42.4352C112.765 42.2091 112.594 41.8135 112.308 41.8135C111.965 41.8135 111.565 41.983 111.28 42.2657Z" fill="#89F0BE"/>
<path d="M95.486 46.848C95.3869 46.0316 95.3869 45.1132 95.7336 44.3989C96.5757 42.7151 98.5571 42.1539 100.241 42.5621C100.885 42.7151 101.678 42.9192 102.421 43.1233C103.61 43.4805 104.254 44.705 103.907 45.9296C103.61 46.95 102.668 47.6133 101.628 47.5113L95.486 46.848Z" fill="#ED9068"/>
<path d="M93.2039 49.1847C93.0982 48.4591 93.0982 47.6427 93.468 47.0078C94.3663 45.5111 96.4798 45.0122 98.2762 45.3751C98.9631 45.5111 99.8085 45.6925 100.601 45.8739C101.869 46.1914 102.556 47.2799 102.186 48.3684C101.869 49.2754 100.865 49.865 99.7556 49.7743L93.2039 49.1847Z" fill="#ED9068"/>
<path d="M90.9218 52.5754C90.8095 51.8497 90.8095 51.0333 91.2025 50.3984C92.1568 48.9017 94.4024 48.4029 96.3111 48.7657C97.0409 48.9017 97.9392 49.0832 98.7813 49.2646C100.129 49.582 100.858 50.6705 100.465 51.759C100.129 52.6661 99.062 53.2557 97.883 53.165L90.9218 52.5754Z" fill="#ED9068"/>
<path d="M89.7752 55.8919C89.6695 55.0756 89.6695 54.1571 90.0393 53.4428C90.9376 51.7591 93.051 51.1978 94.8475 51.606C95.5344 51.7591 96.3798 51.9632 97.1723 52.1673C98.4404 52.5244 99.1273 53.749 98.7574 54.9735C98.4404 55.994 97.4365 56.6573 96.3269 56.5552L89.7752 55.8919Z" fill="#ED9068"/>
<path fill-rule="evenodd" clip-rule="evenodd" d="M94.2527 52.2429C93.186 52.04 92.037 52.1678 91.1549 52.5954C90.8192 52.7582 90.4137 52.6209 90.2492 52.2889C90.0846 51.9568 90.2234 51.5557 90.5591 51.3929C91.7372 50.8218 93.1906 50.677 94.5094 50.928L94.5113 50.9284L94.5113 50.9284C95.2236 51.066 96.0976 51.249 96.9164 51.4319C96.9236 51.4335 96.9308 51.4352 96.938 51.437C97.7931 51.6574 98.5072 52.1675 98.882 52.858C99.0588 53.1838 98.9352 53.5898 98.6058 53.7647C98.2764 53.9396 97.866 53.8173 97.6892 53.4915C97.5228 53.1849 97.1558 52.8796 96.6068 52.7356C95.8026 52.5561 94.9468 52.377 94.2527 52.2429Z" fill="#BE5037"/>
<path fill-rule="evenodd" clip-rule="evenodd" d="M96.2933 49.384C95.2933 49.2544 94.226 49.326 93.3752 49.6335C93.0241 49.7604 92.6354 49.5817 92.5071 49.2343C92.3788 48.887 92.5595 48.5025 92.9106 48.3756C94.0165 47.976 95.3169 47.9054 96.4798 48.0575C96.4859 48.0583 96.492 48.0592 96.4981 48.0602C97.1745 48.1674 98.0049 48.3099 98.7828 48.4524L98.7855 48.4529L98.7855 48.4529C99.4714 48.5813 100.069 48.8874 100.488 49.3196C100.747 49.5863 100.739 50.0102 100.469 50.2663C100.199 50.5225 99.7708 50.5139 99.5118 50.2472C99.313 50.0424 98.9826 49.853 98.5349 49.7689C97.7701 49.6289 96.9553 49.489 96.2933 49.384Z" fill="#BE5037"/>
<path fill-rule="evenodd" clip-rule="evenodd" d="M98.23 46.0258C97.3328 45.8613 96.414 45.9092 95.6601 46.1809C95.3088 46.3076 94.9203 46.1285 94.7923 45.7811C94.6643 45.4337 94.8453 45.0494 95.1966 44.9227C96.2208 44.5535 97.3935 44.5094 98.4836 44.7103L98.4951 44.7125C99.1832 44.8515 100.027 45.0363 100.818 45.2209L100.833 45.2246C101.938 45.5092 102.809 46.3369 102.956 47.434C103.006 47.8006 102.745 48.1373 102.375 48.186C102.004 48.2347 101.664 47.977 101.614 47.6105C101.553 47.1512 101.17 46.6974 100.499 46.5224C99.7243 46.3416 98.8995 46.1611 98.23 46.0258Z" fill="#BE5037"/>
<path d="M157.337 63.3482L155.051 60.8047L152.48 63.3482L154.765 65.8917L157.337 63.3482Z" fill="#15513C"/>
<path d="M117.623 99.0143L116.423 101.275C116.423 101.275 116.994 106.193 115.223 110.827C113.451 115.462 111.794 123.262 103.623 126.202C95.4511 129.141 81.9082 122.81 77.5082 116.423C74.0796 111.449 75.3939 103.706 80.4225 98.7317C85.4511 93.7577 88.4225 93.0795 88.4225 93.0795L89.7939 90.7055C89.7939 90.7055 95.5082 88.9533 102.48 90.7055C113.737 93.5316 117.623 99.0143 117.623 99.0143Z" fill="#BACBF7"/>
<path d="M108.537 121.001C111.509 113.71 109.852 106.983 94.766 99.7486C79.6803 92.4572 67.966 87.5963 57.4517 88.5006C46.9945 89.405 41.4517 98.8442 42.366 107.04C43.2802 115.236 48.9945 124.505 54.3088 131.91C59.6231 139.371 62.5945 142.819 62.5945 142.819L90.3089 140.84C90.3089 140.84 86.8231 135.923 82.766 130.214C78.7088 124.505 75.966 119.927 75.966 119.927C75.966 119.927 79.7946 122.188 86.5946 124.845C96.0231 128.405 105.28 128.914 108.537 121.001Z" fill="#BACBF7"/>
<path fill-rule="evenodd" clip-rule="evenodd" d="M50.9031 90.4143C51.0969 90.7305 50.9949 91.1423 50.6752 91.334C45.1469 94.6499 42.3877 101.134 43.0384 106.966C43.9312 114.97 49.5414 124.111 54.8604 131.522L54.8618 131.524C58.0057 135.938 60.3256 138.941 61.6906 140.652C61.9223 140.942 61.8722 141.363 61.5787 141.592C61.2853 141.821 60.8596 141.772 60.628 141.481C59.2478 139.752 56.9135 136.73 53.7559 132.297C48.4464 124.899 42.6284 115.501 41.6927 107.113C40.9897 100.812 43.9536 93.7995 49.9733 90.1889C50.2929 89.9972 50.7092 90.0981 50.9031 90.4143Z" fill="#E5ECFF"/>
<path fill-rule="evenodd" clip-rule="evenodd" d="M54.5504 146.044C54.7064 145.708 55.1082 145.56 55.448 145.715L62.4194 148.88C62.7592 149.034 62.9082 149.432 62.7523 149.768C62.5963 150.104 62.1944 150.251 61.8547 150.097L54.8832 146.932C54.5435 146.777 54.3944 146.38 54.5504 146.044Z" fill="white"/>
<path fill-rule="evenodd" clip-rule="evenodd" d="M32.441 146.044C32.597 145.708 32.9989 145.56 33.3386 145.715L40.3101 148.88C40.6498 149.034 40.7988 149.432 40.6429 149.768C40.4869 150.104 40.0851 150.251 39.7453 150.097L32.7738 146.932C32.4341 146.777 32.2851 146.38 32.441 146.044Z" fill="white"/>
<path fill-rule="evenodd" clip-rule="evenodd" d="M58.7789 143.331C58.9349 142.995 59.3367 142.847 59.6765 143.002L66.648 146.167C66.9877 146.321 67.1367 146.719 66.9808 147.055C66.8248 147.391 66.4229 147.538 66.0832 147.384L59.1117 144.219C58.772 144.064 58.623 143.667 58.7789 143.331Z" fill="white"/>
<path fill-rule="evenodd" clip-rule="evenodd" d="M36.6691 143.331C36.825 142.995 37.2269 142.847 37.5667 143.002L44.5381 146.167C44.8779 146.321 45.0269 146.719 44.8709 147.055C44.715 147.391 44.3131 147.538 43.9733 147.384L37.0019 144.219C36.6621 144.064 36.5131 143.667 36.6691 143.331Z" fill="white"/>
<path fill-rule="evenodd" clip-rule="evenodd" d="M95.6156 112.288C95.81 111.972 96.2265 111.872 96.5458 112.065C97.2059 112.462 97.7371 112.789 98.1036 113.016C98.2869 113.13 98.4291 113.219 98.5257 113.28C98.574 113.31 98.6109 113.333 98.6358 113.349L98.6741 113.373C98.9886 113.573 99.0797 113.988 98.8776 114.299C98.6754 114.61 98.2566 114.7 97.9421 114.5L97.9066 114.477L97.7995 114.41C97.705 114.35 97.5651 114.263 97.3841 114.15C97.0221 113.926 96.4961 113.602 95.8419 113.208C95.5226 113.016 95.4213 112.604 95.6156 112.288Z" fill="#E5ECFF"/>
<path fill-rule="evenodd" clip-rule="evenodd" d="M61.367 102.893C60.7166 103.61 60.2512 104.612 60.0653 105.998L60.0651 105.999C59.6772 108.83 60.6494 112.428 62.4278 116.309C64.1962 120.168 66.7157 124.211 69.3005 127.897C71.8831 131.579 74.519 134.888 76.5103 137.277C77.5056 138.472 78.339 139.435 78.923 140.099C79.215 140.431 79.4446 140.689 79.6009 140.863C79.679 140.95 79.7388 141.016 79.7789 141.06L79.8241 141.109L79.8353 141.122L79.8379 141.125L79.8386 141.125C79.8387 141.125 79.8387 141.125 79.3371 141.575C78.8356 142.025 78.8355 142.025 78.8352 142.024L78.8311 142.02L78.8189 142.007L78.7716 141.954C78.73 141.909 78.6687 141.841 78.589 141.752C78.4297 141.575 78.1969 141.314 77.9015 140.978C77.3107 140.306 76.4695 139.334 75.4657 138.129C73.4588 135.721 70.7983 132.382 68.1881 128.66C65.58 124.941 63.0102 120.824 61.1947 116.862C59.3893 112.922 58.283 109.037 58.7233 105.82C58.9375 104.225 59.4917 102.954 60.3597 101.999C61.2279 101.042 62.3669 100.449 63.6688 100.135C66.2405 99.5148 69.5332 99.9655 72.9874 100.942C79.9235 102.902 87.9277 107.107 93.1054 110.078C93.4288 110.264 93.5388 110.673 93.3513 110.993C93.1637 111.313 92.7494 111.422 92.426 111.237C87.2609 108.273 79.3794 104.141 72.6155 102.229C69.2196 101.27 66.2088 100.901 63.9894 101.436C62.8957 101.7 62.0173 102.177 61.367 102.893ZM79.7918 142.071C79.5148 142.32 79.0863 142.298 78.8352 142.024L79.3371 141.575L79.8386 141.125C80.0896 141.399 80.0688 141.823 79.7918 142.071Z" fill="#E5ECFF"/>
<path d="M98.2513 94.2663C98.9456 94.2663 99.5084 93.7096 99.5084 93.0228C99.5084 92.336 98.9456 91.7793 98.2513 91.7793C97.557 91.7793 96.9941 92.336 96.9941 93.0228C96.9941 93.7096 97.557 94.2663 98.2513 94.2663Z" fill="#FFE5B2"/>
<path fill-rule="evenodd" clip-rule="evenodd" d="M101.239 93.9924L101.223 94.6618C101.239 93.9924 101.239 93.9924 101.239 93.9924L101.241 93.9924L101.242 93.9925L101.245 93.9926L101.254 93.9929L101.282 93.9941C101.305 93.9952 101.337 93.997 101.378 93.9999C101.459 94.0058 101.575 94.0161 101.725 94.0342C102.025 94.0705 102.46 94.1378 103.021 94.2629C104.144 94.5129 105.772 94.9932 107.84 95.9149C109.895 96.8027 111.309 97.5803 112.217 98.1426C112.672 98.424 112.999 98.6514 113.217 98.8116C113.326 98.8918 113.407 98.9551 113.463 99C113.491 99.0225 113.513 99.0403 113.528 99.0533L113.547 99.0692L113.553 99.0744L113.555 99.0763L113.556 99.0771C113.556 99.0772 113.557 99.0777 113.145 99.5384L113.557 99.0777C113.837 99.3227 113.863 99.7459 113.615 100.023C113.368 100.299 112.941 100.326 112.661 100.082C112.661 100.082 112.661 100.082 112.66 100.081C112.66 100.081 112.661 100.081 112.66 100.081L112.653 100.075C112.645 100.068 112.631 100.056 112.61 100.04C112.569 100.007 112.502 99.9549 112.408 99.8858C112.221 99.7476 111.923 99.5404 111.499 99.2777C110.651 98.7523 109.295 98.0044 107.294 97.1406L107.287 97.1375C105.3 96.2515 103.758 95.7996 102.724 95.5693C102.224 95.4581 101.843 95.3985 101.588 95.3668L99.5767 98.7329C99.3865 99.0512 98.9714 99.1568 98.6496 98.9687C98.3277 98.7806 98.221 98.37 98.4111 98.0516L100.64 94.3211C100.765 94.1121 100.994 93.9863 101.239 93.9924Z" fill="#E5ECFF"/>
<path fill-rule="evenodd" clip-rule="evenodd" d="M109.45 97.4542L109.449 97.4548L109.449 97.4555L109.11 97.2392L108.88 97.0925C108.311 96.7295 108.311 96.7302 108.311 96.7302L108.31 96.731L108.309 96.7327L108.307 96.7365L108.301 96.7461C108.296 96.7534 108.29 96.7625 108.284 96.7734C108.271 96.7952 108.254 96.8241 108.235 96.8601C108.196 96.9321 108.147 97.0325 108.092 97.161C107.984 97.4182 107.859 97.7875 107.771 98.2657C107.595 99.2257 107.573 100.605 108.118 102.373C108.677 104.215 109.747 105.501 110.67 106.323C111.132 106.734 111.56 107.032 111.876 107.229C112.035 107.328 112.165 107.401 112.259 107.451C112.306 107.476 112.344 107.496 112.371 107.509C112.385 107.516 112.396 107.521 112.404 107.525L112.414 107.53L112.418 107.532L112.419 107.533C112.419 107.533 112.42 107.533 112.708 106.927L112.42 107.533C112.759 107.691 113.162 107.547 113.321 107.213C113.48 106.878 113.335 106.479 112.997 106.322L112.996 106.321L112.98 106.313C112.964 106.305 112.938 106.292 112.903 106.274C112.834 106.236 112.729 106.177 112.598 106.096C112.335 105.932 111.971 105.679 111.576 105.328C111.334 105.112 111.082 104.861 110.835 104.572C110.274 103.915 109.74 103.062 109.414 101.987L109.413 101.984C108.93 100.418 108.965 99.2548 109.103 98.5052C109.172 98.1285 109.268 97.8513 109.342 97.6757C109.379 97.5879 109.411 97.5254 109.431 97.4885C109.44 97.4701 109.447 97.4585 109.45 97.453L109.449 97.4555L109.449 97.4548C109.449 97.4548 109.449 97.4553 109.11 97.2392L109.449 97.4555L109.45 97.453L109.45 97.4542Z" fill="#E5ECFF"/>
<path fill-rule="evenodd" clip-rule="evenodd" d="M95.5395 92.4651C95.8511 92.6695 95.9362 93.085 95.7296 93.3932L92.2439 98.5932C92.0373 98.9014 91.6172 98.9856 91.3056 98.7813C90.994 98.5769 90.9089 98.1614 91.1155 97.8532L94.6012 92.6532C94.8078 92.3449 95.2279 92.2608 95.5395 92.4651Z" fill="#E5ECFF"/>
<path d="M58.2859 73.1829C57.4948 73.1829 56.7214 73.4249 56.0636 73.8783C55.4058 74.3317 54.8931 74.9761 54.5904 75.7301C54.2876 76.484 54.2084 77.3136 54.3627 78.114C54.5171 78.9144 54.8981 79.6496 55.4575 80.2267C56.0169 80.8037 56.7296 81.1967 57.5055 81.3559C58.2815 81.5151 59.0857 81.4334 59.8166 81.1211C60.5475 80.8088 61.1722 80.28 61.6118 79.6014C62.0513 78.9229 62.2859 78.1251 62.2859 77.3091C62.2859 76.2147 61.8645 75.1652 61.1143 74.3914C60.3642 73.6176 59.3468 73.1829 58.2859 73.1829ZM58.2859 40.1738C57.225 40.1738 56.2076 40.6085 55.4575 41.3823C54.7073 42.1561 54.2859 43.2056 54.2859 44.3V60.8045C54.2859 61.8988 54.7073 62.9483 55.4575 63.7221C56.2076 64.4959 57.225 64.9306 58.2859 64.9306C59.3468 64.9306 60.3642 64.4959 61.1143 63.7221C61.8645 62.9483 62.2859 61.8988 62.2859 60.8045V44.3C62.2859 43.2056 61.8645 42.1561 61.1143 41.3823C60.3642 40.6085 59.3468 40.1738 58.2859 40.1738Z" fill="black"/>
<path fill-rule="evenodd" clip-rule="evenodd" d="M71.8819 107.333C72.2554 107.318 72.57 107.606 72.5845 107.976C72.694 110.762 73.6978 113.653 74.698 115.876C75.1953 116.981 75.6858 117.908 76.0514 118.557C76.2341 118.882 76.3852 119.137 76.49 119.309C76.5424 119.396 76.5832 119.461 76.6104 119.505C76.6241 119.527 76.6344 119.543 76.641 119.553L76.6483 119.565L76.6499 119.567C76.851 119.879 76.759 120.293 76.444 120.492C76.129 120.691 75.7104 120.6 75.5091 120.288L76.0796 119.928C75.5091 120.288 75.5092 120.289 75.5091 120.288L75.5078 120.286L75.5051 120.282L75.4955 120.267C75.4872 120.254 75.4753 120.235 75.46 120.211C75.4294 120.162 75.3853 120.091 75.3294 119.999C75.2177 119.815 75.059 119.547 74.8684 119.209C74.4876 118.532 73.9781 117.569 73.4611 116.42C72.4328 114.135 71.3509 111.063 71.2317 108.028C71.2172 107.658 71.5083 107.347 71.8819 107.333Z" fill="#E5ECFF"/>
</g>
<defs>
<clipPath id="clip0_449_18908">
<rect width="176" height="176.154" fill="white"/>
</clipPath>
</defs>
</svg>
