<svg width="173" height="176" viewBox="0 0 173 176" fill="none" xmlns="http://www.w3.org/2000/svg">
<path fill-rule="evenodd" clip-rule="evenodd" d="M34.7487 2.03077C34.7487 0.909207 33.8411 0 32.7215 0H17.9284C16.8088 0 15.9012 0.909207 15.9012 2.03077V18.6388V18.881V37.5196V37.5199V54.3699C15.9012 55.4915 16.8088 56.4007 17.9284 56.4007H32.7215C33.8411 56.4007 34.7487 55.4915 34.7487 54.3699V37.5199V37.5196V18.881V18.6388V2.03077ZM110.139 39.5504C110.139 38.4289 109.231 37.5196 108.112 37.5196H93.3184C92.1988 37.5196 91.2912 38.4289 91.2912 39.5504V54.3699C91.2912 55.4915 92.1988 56.4007 93.3184 56.4007H108.112C109.231 56.4007 110.139 55.4915 110.139 54.3699V39.5504ZM36.776 56.4007C35.6564 56.4007 34.7488 55.4915 34.7488 54.3699V37.5199V37.5196V20.6696C34.7488 19.548 35.6564 18.6388 36.776 18.6388H51.5691C52.6887 18.6388 53.5963 19.548 53.5963 20.6696V37.5196V37.5199V54.3699C53.5963 55.4915 52.6887 56.4007 51.5691 56.4007H36.776ZM89.2638 94.1627C90.3834 94.1627 91.2909 93.2535 91.2909 92.1319V75.2819V75.2816V58.4316C91.2909 57.31 90.3834 56.4008 89.2638 56.4008H72.4439H72.4435H55.6236C54.504 56.4008 53.5964 57.31 53.5964 58.4316V75.2816V75.2819V93.7754V94.1627V111.013C53.5964 112.134 54.504 113.044 55.6236 113.044H70.4167C71.5363 113.044 72.4439 112.134 72.4439 111.013V96.1935C72.4439 95.0719 73.3515 94.1627 74.471 94.1627H89.2638ZM32.7216 93.6149C33.8412 93.6149 34.7488 92.7057 34.7488 91.5841V75.2819V75.2816V58.4316C34.7488 57.31 35.6564 56.4008 36.776 56.4008H51.5691C52.6887 56.4008 53.5963 57.31 53.5963 58.4316V75.2816V75.2819V92.1319C53.5963 93.2535 52.6887 94.1627 51.5691 94.1627H37.8382C36.7186 94.1627 35.811 95.0719 35.811 96.1935V110.465C35.811 111.587 34.9035 112.496 33.7839 112.496H18.9907C17.8712 112.496 16.9636 111.587 16.9636 110.465V95.6456C16.9636 94.5241 17.8712 93.6149 18.9907 93.6149H32.7216ZM90.3459 16.6081C90.3459 17.7296 89.4383 18.6388 88.3187 18.6388H74.471C73.3515 18.6388 72.4439 17.7296 72.4439 16.6081V2.24321C72.4439 1.12164 71.5363 0.212438 70.4167 0.212438H55.6236C54.504 0.212438 53.5964 1.12165 53.5964 2.24321V18.6388V19.0935V37.5196V37.5199V54.3699C53.5964 55.4915 54.504 56.4007 55.6236 56.4007H72.4435H72.4439H89.2638C90.3834 56.4007 91.2909 55.4915 91.2909 54.3699V37.5199V37.5196V21.161C91.2909 20.0395 92.1985 19.1303 93.3181 19.1303H107.166C108.286 19.1303 109.193 18.2211 109.193 17.0995V2.27999C109.193 1.15843 108.286 0.249219 107.166 0.249219H92.373C91.2535 0.249219 90.3459 1.15843 90.3459 2.27999V16.6081ZM15.9012 58.4316C15.9012 57.31 16.8088 56.4008 17.9284 56.4008H32.7215C33.8411 56.4008 34.7487 57.31 34.7487 58.4316V73.2511C34.7487 74.3727 33.8411 75.2819 32.7215 75.2819H17.9284C16.8088 75.2819 15.9012 74.3727 15.9012 73.2511V58.4316ZM110.139 58.4316C110.139 57.31 109.231 56.4008 108.112 56.4008H93.3184C92.1988 56.4008 91.2912 57.31 91.2912 58.4316V73.2511C91.2912 74.3727 92.1988 75.2819 93.3184 75.2819H108.112C109.231 75.2819 110.139 74.3727 110.139 73.2511V58.4316Z" fill="#D1FAE8"/>
<path d="M154.038 98.6434C156.627 95.7029 158.824 92.7801 160.541 90.0626L161.174 89.0473C163.324 85.4671 164.578 82.3095 164.701 80.0792C139.763 67.4298 134.936 52.0576 131.183 40.1081C129.652 35.2306 128.299 30.9234 125.831 27.6044C126.113 27.4318 126.384 27.2287 126.637 26.9907C127.602 26.0853 128.145 24.8477 128.353 23.3991L124.873 22.8974C124.748 23.7729 124.473 24.1963 124.234 24.4207C124.032 24.6105 123.727 24.7772 123.243 24.8702C120.653 22.7413 117.111 21.315 111.972 20.8005C81.5008 17.7544 77.7044 94.9341 111.386 121.75C126.285 121.791 140.844 112.248 150.98 101.93C144.881 96.7007 136.801 87.2748 133.649 78.3184C141.16 91.3715 147.933 96.5774 154.038 98.6434Z" fill="black"/>
<path opacity="0.4" fill-rule="evenodd" clip-rule="evenodd" d="M155.051 99.538C154.691 99.9469 154.121 100.099 153.605 99.9249C151.704 99.2815 149.763 98.3584 147.779 97.0465C149.182 98.49 150.564 99.7903 151.858 100.9C152.143 101.145 152.314 101.496 152.33 101.871C152.346 102.246 152.206 102.611 151.943 102.879C141.707 113.299 126.818 123.146 111.383 123.103C111.079 123.102 110.784 122.999 110.546 122.809C93.2383 109.03 85.7178 82.5249 86.2709 60.0426C86.5481 48.7753 88.8526 38.332 93.1152 30.846C97.3953 23.3293 103.784 18.6203 112.106 19.4523C117.007 19.9428 120.629 21.2471 123.396 23.2752C123.442 23.1632 123.496 22.983 123.536 22.7034C123.587 22.348 123.777 22.0275 124.064 21.8123C124.351 21.5972 124.711 21.5051 125.066 21.5562L128.545 22.058C128.9 22.1091 129.22 22.2994 129.435 22.5868C129.65 22.8743 129.742 23.2355 129.691 23.5909C129.458 25.2121 128.841 26.7228 127.665 27.8785C129.804 31.2028 131.081 35.2701 132.427 39.5553L132.472 39.6983C132.472 39.6991 132.472 39.6999 132.472 39.7007C134.35 45.6794 136.445 52.3279 141.108 59.0581C145.758 65.7706 153.019 72.6349 165.311 78.8703C165.79 79.113 166.08 79.6163 166.05 80.1528C165.908 82.725 164.51 86.1181 162.332 89.7441L162.32 89.7631L161.683 90.7855C159.924 93.5706 157.682 96.5505 155.051 99.538ZM131.183 40.107C129.818 35.7596 128.595 31.8654 126.598 28.72C126.355 28.3365 126.099 27.964 125.831 27.6033C126.088 27.4465 126.334 27.2643 126.568 27.0537C126.591 27.0327 126.614 27.0113 126.637 26.9896C127.293 26.3744 127.754 25.6057 128.047 24.7217C128.185 24.3048 128.286 23.8622 128.353 23.398L124.874 22.8963C124.748 23.7718 124.473 24.1952 124.234 24.4196C124.032 24.6094 123.728 24.7761 123.243 24.8692C120.653 22.7402 117.112 21.3139 111.972 20.7995C81.501 17.7534 77.7045 94.933 111.386 121.749C125.822 121.789 139.938 112.831 150.021 102.889C150.345 102.57 150.665 102.25 150.98 101.929C150.646 101.643 150.307 101.345 149.963 101.034C146.819 98.2004 143.275 94.3835 140.193 90.1648C137.44 86.3981 135.055 82.311 133.65 78.3173C136.273 82.8771 138.807 86.4792 141.254 89.3245C145.811 94.6243 150.066 97.298 154.038 98.6423C156.628 95.7018 158.825 92.779 160.541 90.0616L161.174 89.0462C163.324 85.466 164.578 82.3084 164.701 80.0781C139.763 67.4287 134.936 52.0565 131.183 40.107Z" fill="white"/>
<path d="M54.5566 146.067C54.5566 144.113 53.4962 142.411 51.9202 141.495V140.785H49.2838C46.372 140.785 44.0109 143.15 44.0109 146.067C44.0109 148.984 46.372 151.35 49.2838 151.35H51.9202V150.64C53.4962 149.724 54.5566 148.022 54.5566 146.067Z" fill="#BACBF7"/>
<path d="M51.92 144.747C52.6465 144.747 53.2382 145.34 53.2382 146.067C53.2382 146.795 52.6465 147.388 51.92 147.388C51.1935 147.388 50.6018 146.795 50.6018 146.067C50.6018 145.34 51.1935 144.747 51.92 144.747ZM51.92 140.785C49.0082 140.785 46.6471 143.15 46.6471 146.067C46.6471 148.984 49.0082 151.35 51.92 151.35C54.8318 151.35 57.1929 148.984 57.1929 146.067C57.1929 143.15 54.8318 140.785 51.92 140.785Z" fill="#E5ECFF"/>
<path d="M57.1933 147.534H51.9204C51.1119 147.534 50.4557 146.877 50.4557 146.067C50.4557 145.257 51.1119 144.6 51.9204 144.6H57.1933C58.0018 144.6 58.658 145.257 58.658 146.067C58.658 146.877 58.0018 147.534 57.1933 147.534Z" fill="#102156"/>
<path d="M54.8496 147.534C54.0411 147.534 53.3849 146.877 53.3849 146.067V139.024C53.3849 138.214 54.0411 137.557 54.8496 137.557C55.6581 137.557 56.3143 138.214 56.3143 139.024V146.067C56.3143 146.877 55.6581 147.534 54.8496 147.534Z" fill="#102156"/>
<path d="M64.5166 146.067C64.5166 144.113 63.4562 142.411 61.8802 141.495V140.785H59.2437C56.332 140.785 53.9709 143.15 53.9709 146.067C53.9709 148.984 56.332 151.35 59.2437 151.35H61.8802V150.64C63.4562 149.724 64.5166 148.022 64.5166 146.067Z" fill="#BACBF7"/>
<path d="M61.8805 144.747C62.6069 144.747 63.1987 145.34 63.1987 146.067C63.1987 146.795 62.6069 147.388 61.8805 147.388C61.154 147.388 60.5623 146.795 60.5623 146.067C60.5623 145.34 61.154 144.747 61.8805 144.747ZM61.8805 140.785C58.9687 140.785 56.6076 143.15 56.6076 146.067C56.6076 148.984 58.9687 151.35 61.8805 151.35C64.7923 151.35 67.1533 148.984 67.1533 146.067C67.1533 143.15 64.7923 140.785 61.8805 140.785Z" fill="#E5ECFF"/>
<path d="M61.8805 144.747C62.6069 144.747 63.1987 145.34 63.1987 146.067C63.1987 146.795 62.6069 147.388 61.8805 147.388C61.154 147.388 60.5623 146.795 60.5623 146.067C60.5623 145.34 61.154 144.747 61.8805 144.747Z" fill="#E5ECFF"/>
<path d="M117.831 146.067C117.831 144.113 116.771 142.411 115.195 141.495V140.785H112.558C109.647 140.785 107.286 143.15 107.286 146.067C107.286 148.984 109.647 151.35 112.558 151.35H115.195V150.64C116.771 149.724 117.831 148.022 117.831 146.067Z" fill="#BACBF7"/>
<path d="M115.195 144.747C115.921 144.747 116.513 145.34 116.513 146.067C116.513 146.795 115.921 147.388 115.195 147.388C114.468 147.388 113.876 146.795 113.876 146.067C113.876 145.34 114.468 144.747 115.195 144.747ZM115.195 140.785C112.283 140.785 109.922 143.15 109.922 146.067C109.922 148.984 112.283 151.35 115.195 151.35C118.106 151.35 120.468 148.984 120.468 146.067C120.468 143.15 118.106 140.785 115.195 140.785Z" fill="#E5ECFF"/>
<path d="M120.468 147.534H115.195C114.387 147.534 113.73 146.877 113.73 146.067C113.73 145.257 114.387 144.6 115.195 144.6H120.468C121.276 144.6 121.933 145.257 121.933 146.067C121.933 146.877 121.276 147.534 120.468 147.534Z" fill="#102156"/>
<path d="M118.124 147.534C117.315 147.534 116.659 146.877 116.659 146.067V139.024C116.659 138.214 117.315 137.557 118.124 137.557C118.932 137.557 119.588 138.214 119.588 139.024V146.067C119.588 146.877 118.932 147.534 118.124 147.534Z" fill="#102156"/>
<path d="M52.6704 139.674C44.4096 139.651 35.7152 140.396 30.2432 137.849C20.09 133.124 19.6975 123.763 25.8491 123.469C32.4636 123.276 40.7889 133.74 52.6704 139.674Z" fill="#E5ECFF"/>
<path d="M120.814 139.088C129.075 139.065 137.769 139.81 143.241 137.263C153.394 132.538 153.787 123.177 147.635 122.884C141.021 122.69 132.695 133.155 120.814 139.088Z" fill="#102156"/>
<path d="M25.8492 123.471C37.1624 124.938 40.789 139.676 49.5771 139.676H138.542C147.418 139.676 156.792 131.981 150.675 124.052C150.675 124.052 150.142 123.213 150.459 124.128C152.831 130.983 144.617 136.976 136.784 136.976H52.5064C41.0819 136.383 41.6678 121.71 25.8492 123.471Z" fill="#BACBF7"/>
<path d="M127.791 146.067C127.791 144.113 126.731 142.411 125.155 141.495V140.785H122.518C119.607 140.785 117.246 143.15 117.246 146.067C117.246 148.984 119.607 151.35 122.518 151.35H125.155V150.64C126.731 149.724 127.791 148.022 127.791 146.067Z" fill="#BACBF7"/>
<path d="M125.155 140.785C122.243 140.785 119.882 143.15 119.882 146.067C119.882 148.984 122.243 151.35 125.155 151.35C128.066 151.35 130.427 148.984 130.427 146.067C130.427 143.15 128.066 140.785 125.155 140.785Z" fill="#E5ECFF"/>
<path d="M154.308 147.1L129.062 74.305C128.049 71.3704 126.057 68.8819 123.42 67.2561L112.265 60.3774H96.2417L86.9028 61.4398C82.6611 61.921 78.7299 63.8755 75.7537 66.9333C63.2921 79.734 56.7304 81.7941 53.3499 81.0839C49.7585 80.3268 42.9155 72.914 36.3127 53.0645L22.4157 57.707C27.3722 72.6147 36.0724 92.4525 50.3443 95.4516C51.7797 95.7509 53.2034 95.8977 54.6329 95.8977C63.0695 95.8977 71.342 90.8913 79.0639 84.1065L78.185 96.8191C77.9272 100.546 80.9679 103.668 84.6941 103.498L116.952 102.049L121.053 90.8971L140.528 152.077L154.308 147.1Z" fill="#24BC85"/>
<path d="M47.1342 37.5533C46.894 35.6224 45.1305 34.2549 43.2089 34.5014C39.9865 34.9147 37.6431 36.4969 36.0143 38.8563C32.3116 34.472 30.0677 34.6892 27.6832 35.0296C26.3416 35.2174 24.4433 36.2739 23.875 37.5533C22.2932 37.2071 20.266 37.4301 19.9204 39.0148C19.8325 39.4256 19.7622 39.8247 19.7036 40.218C18.7369 40.1886 17.7702 40.6347 17.1843 41.4974C16.0126 43.2288 15.6493 44.8898 15.7782 46.4275L13.5754 44.972C12.2689 44.0153 10.4351 44.2912 9.48012 45.6C8.52514 46.9088 8.8005 48.7459 10.107 49.7025L24.4902 62.2978L37.7016 59.1343C37.0279 55.6304 37.0572 52.1382 38.3402 48.5522C40.2853 44.0329 41.1583 41.8821 44.0877 41.4974C46.0093 41.2451 47.3744 39.4843 47.1342 37.5533Z" fill="#FDBF85"/>
<path d="M170.583 167.355C170.583 167.349 170.583 167.349 170.583 167.343C171.222 166.95 171.726 166.31 171.907 165.488C172.235 164.027 171.339 162.571 169.933 162.049C169.452 161.867 168.99 161.685 168.533 161.486C169.845 161.257 170.53 160.723 170.583 159.273C170.642 157.771 169.704 156.925 168.533 156.338C167.361 155.752 156.669 150.346 154.888 149.689C154.513 149.507 154.226 149.19 154.079 148.802L153.276 146.654L141.407 151.168C142.045 153.639 141.536 157.412 141.196 159.179C141.084 159.754 140.903 160.306 140.645 160.834C139.831 162.495 140.094 162.049 138.337 165.301C137.112 166.809 137.159 169.075 138.624 170.348C139.292 170.929 140.112 171.211 140.926 171.211C141.946 171.211 142.953 170.771 143.645 169.92C144.488 168.664 145.66 166.903 146.463 165.301C146.92 164.315 147.892 163.675 148.976 163.675H149.011C149.925 163.675 150.781 164.127 151.29 164.884C154.788 170.072 156.159 171.481 161.133 175.026C161.649 175.39 162.24 175.566 162.826 175.566C163.816 175.566 164.795 175.061 165.351 174.122C166.136 172.796 165.691 171.07 164.431 170.172C162.475 168.775 162.955 169.573 161.408 168.053C164.226 169.937 164.168 170.548 168.052 172.238C168.433 172.402 168.826 172.485 169.218 172.485C170.349 172.485 171.427 171.827 171.907 170.718C172.587 169.163 172.218 167.918 170.583 167.355Z" fill="#FDBF85"/>
<path d="M42.9574 159.187C43.511 156.059 41.026 153.002 37.4068 152.359C33.7877 151.716 30.405 153.731 29.8513 156.858C29.2977 159.986 31.7827 163.043 35.4019 163.686C39.021 164.329 42.4037 162.314 42.9574 159.187Z" fill="#102156"/>
<path d="M37.5666 156.633C37.3966 156.633 37.2267 156.609 37.051 156.568C35.9554 156.286 35.2934 155.165 35.5804 154.068L44.3685 120.027C44.6498 118.929 45.7688 118.266 46.8702 118.553C47.9658 118.835 48.6278 119.956 48.3408 121.054L39.5527 155.095C39.3125 156.016 38.4805 156.633 37.5666 156.633Z" fill="#24BC85"/>
<path d="M57.8951 125.444C61.1857 124.452 61.7282 116.572 59.1069 107.844C56.4855 99.1152 51.6929 92.8434 48.4023 93.8351C45.1117 94.8269 44.5692 102.707 47.1906 111.435C49.8119 120.164 54.6045 126.436 57.8951 125.444Z" fill="black"/>
<path d="M59.6712 101.725C58.2768 98.4325 57.1109 96.3783 53.0918 95.5918C41.9602 100.287 39.9858 107.031 40.2026 110.177C40.2026 110.177 40.2026 110.816 40.2026 111.145C40.2026 117.789 45.5809 123.177 52.213 123.177C58.8451 123.177 64.2234 117.789 64.2234 111.145C64.2234 107.324 62.4424 103.926 59.6712 101.725Z" fill="#24DB83"/>
<path d="M87.0667 98.5281L82.7547 99.7606L80.6279 106.158C74.1833 97.9412 66.567 92.6589 47.819 93.8327C56.6071 99.115 59.6009 112.303 57.7789 125.526L62.4659 124.352C62.4659 124.352 65.7057 129.511 67.311 132.511C68.9163 135.51 73.2811 137.265 77.1127 137.265H81.9579L86.2699 111.734L85.3735 111.305L87.0667 98.5281Z" fill="#B25735"/>
<path d="M120.339 47.3066L123.092 48.633C123.907 49.0263 124.879 48.68 125.272 47.8642L126.648 44.9941C127.041 44.1783 126.695 43.204 125.881 42.8108L123.127 41.4844L120.339 47.3066Z" fill="#FEA768"/>
<path d="M101.134 50.9863V56.5914C102.721 61.14 106.237 60.1481 110.642 56.5914L109.892 50.9863H101.134Z" fill="#FEA768"/>
<path d="M101.134 53.1816L103.478 56.8557L110.473 54.1501L112.266 60.3772C109.922 70.3548 95.8612 69.7679 96.242 60.3772L101.134 53.1816Z" fill="#D1FAE8"/>
<path fill-rule="evenodd" clip-rule="evenodd" d="M103.588 56.1889C103.882 56.2379 104.109 56.4737 104.147 56.7696L105.563 67.7089C105.611 68.0796 105.35 68.4192 104.98 68.4672C104.61 68.5153 104.271 68.2537 104.223 67.883L103.094 59.1624L99.1853 67.0929C99.02 67.4281 98.6148 67.5656 98.2802 67.4001C97.9456 67.2346 97.8083 66.8287 97.9735 66.4934L102.871 56.5569C103.003 56.2894 103.294 56.1399 103.588 56.1889Z" fill="#24BC85"/>
<path d="M85.3153 109.942C85.5613 100.639 85.1864 95.0871 90.0022 94.4181C96.359 93.5377 103.641 101.021 103.477 110.852C103.354 118.329 101.075 124.715 97.6772 127.268" fill="black"/>
<path d="M116.285 134.834C120.187 130.286 100.987 94.3665 93.5176 95.5932C93.2188 95.6401 92.504 95.7458 92.2638 95.9336C92.0236 96.1214 88.2506 98.3165 86.4871 104.291C84.7236 110.266 76.8847 151.849 75.5079 159.538L89.8442 162.537C91.6545 154.942 96.1892 136.255 96.3415 135.65C96.3767 135.991 96.406 136.331 96.4411 136.683L116.285 134.834Z" fill="#FDBF85"/>
<path d="M77.7693 147.389C76.7148 152.982 75.877 157.478 75.5079 159.538L89.8442 162.537C90.5121 159.732 91.5549 155.412 92.6036 151.051L77.7693 147.389Z" fill="#102156"/>
<path d="M104.38 108.887C104.374 108.911 104.386 108.882 104.351 108.94C104.31 109.011 104.269 109.075 104.222 109.134L104.198 109.163C104.239 109.087 104.28 109.017 104.315 108.964C104.357 108.911 104.398 108.829 104.38 108.887Z" fill="#FDBF85"/>
<path d="M104.38 108.887C104.374 108.911 104.386 108.882 104.351 108.94C104.31 109.011 104.269 109.075 104.222 109.134L104.198 109.163C104.239 109.087 104.28 109.017 104.315 108.964C104.357 108.911 104.398 108.829 104.38 108.887Z" fill="#FDBF85"/>
<path d="M99.3763 126.112L104.327 112.613C104.327 112.613 105.745 125.525 105.036 126.112C104.327 126.699 99.3763 126.112 99.3763 126.112Z" fill="black"/>
<path d="M99.3761 126.112C109.207 121.071 101.134 89.7235 88.2445 95.0057C91.1738 93.245 102.891 90.3104 109.049 99.0789L111.094 102.049H116.952L122.225 121.417C124.282 128.513 124.715 134.411 121.053 137.264H95.8608L99.3761 126.112Z" fill="#B25735"/>
<path fill-rule="evenodd" clip-rule="evenodd" d="M110.731 101.477C111.046 101.276 111.464 101.369 111.664 101.685L115.765 108.141C115.965 108.456 115.873 108.875 115.558 109.075C115.243 109.276 114.825 109.183 114.625 108.868L110.524 102.412C110.323 102.096 110.416 101.678 110.731 101.477Z" fill="black"/>
<path fill-rule="evenodd" clip-rule="evenodd" d="M66.5822 123.631C66.6465 123.999 66.4006 124.35 66.033 124.414L62.5822 125.019C62.2146 125.083 61.8645 124.837 61.8002 124.468C61.7359 124.1 61.9818 123.749 62.3494 123.685L65.8002 123.081C66.1678 123.016 66.5179 123.262 66.5822 123.631Z" fill="black"/>
<path d="M3.17606 170.39C3.69162 167.537 5.32035 164.978 7.75173 163.311L22.258 153.346C24.7831 151.608 28.105 151.591 30.6535 153.293C32.3643 154.437 33.2489 156.48 32.9091 158.516L32.8798 158.698C32.294 163.981 42.2538 164.567 42.9627 159.197V157.448H43.4256C45.2242 157.448 46.5951 159.056 46.3198 160.835L44.7906 170.131" fill="#CF693F"/>
<mask id="mask0_401_18919" style="mask-type:alpha" maskUnits="userSpaceOnUse" x="3" y="152" width="44" height="19">
<path d="M3.17606 170.39C3.69162 167.537 5.32035 164.978 7.75173 163.311L22.258 153.346C24.7831 151.608 28.105 151.591 30.6535 153.293C32.3643 154.437 33.2489 156.48 32.9091 158.516L32.8798 158.698C32.294 163.981 42.2538 164.567 42.9627 159.197V157.448H43.4256C45.2242 157.448 46.5951 159.056 46.3198 160.835L44.7906 170.131" fill="#717171"/>
</mask>
<g mask="url(#mask0_401_18919)">
<path d="M23.6787 165.174C21.9153 161.964 18.8218 159.798 14.2227 158.559L14.6797 156.857C19.7651 158.231 23.21 160.672 25.2137 164.323L23.6787 165.174Z" fill="#FFE5B2"/>
<path d="M26.1883 163.07C25.1689 160.012 21.1029 156.632 17.16 156.632C17.1307 156.632 17.1014 156.632 17.0721 156.632L17.0487 154.871C17.0838 154.871 17.1248 154.871 17.16 154.871C22.0403 154.871 26.616 158.803 27.8522 162.519L26.1883 163.07Z" fill="#FFE5B2"/>
<path fill-rule="evenodd" clip-rule="evenodd" d="M33.6337 156.725C33.9063 156.981 33.9207 157.409 33.6658 157.682C29.8572 161.763 26.1938 165.688 18.0689 167.275C17.7026 167.347 17.3477 167.107 17.2763 166.74C17.2049 166.373 17.444 166.018 17.8102 165.946C25.4922 164.446 28.9061 160.8 32.6787 156.758C32.9335 156.484 33.3611 156.47 33.6337 156.725Z" fill="#B25735"/>
<path fill-rule="evenodd" clip-rule="evenodd" d="M12.2191 159.477C12.4244 159.164 12.8434 159.078 13.1551 159.284C15.4139 160.774 16.8864 162.47 17.7853 164.325C18.6821 166.175 18.9872 168.139 18.9781 170.135C18.9764 170.509 18.6725 170.81 18.2993 170.809C17.9261 170.807 17.6249 170.502 17.6266 170.129C17.6351 168.274 17.3514 166.529 16.5696 164.916C15.79 163.308 14.4943 161.788 12.4118 160.414C12.1001 160.209 12.0138 159.789 12.2191 159.477Z" fill="#B25735"/>
</g>
<path d="M3.22849 170.131C3.08202 170.853 3 171.592 3 172.344V175.707H44.0111L44.8782 170.131H3.22849Z" fill="#FFE5B2"/>
<path d="M108.322 54.4375C115.735 54.4375 121.745 48.4174 121.745 40.9912C121.745 33.565 115.735 27.5449 108.322 27.5449C100.91 27.5449 94.9001 33.565 94.9001 40.9912C94.9001 48.4174 100.91 54.4375 108.322 54.4375Z" fill="#FDBF85"/>
<path d="M26.9193 72.5186L40.8221 64.1433C39.7675 61.5316 38.7129 58.6615 37.6584 55.498L22.3261 60.616C23.8259 65.1235 24.7574 67.6883 26.9193 72.5186Z" fill="#D1FAE8"/>
<path d="M137.106 143.022L140.721 153.698L155.491 148.363L152.146 139.225L137.106 143.022Z" fill="#D1FAE8"/>
<path d="M106.561 42.9456C105.723 44.6946 103.081 43.421 103.919 41.6778C104.757 39.9347 106.028 38.8019 106.754 39.1482C107.487 39.5004 107.399 41.1966 106.561 42.9456Z" fill="#E2652F"/>
<path fill-rule="evenodd" clip-rule="evenodd" d="M15.9672 42.5703C16.3404 42.571 16.6423 42.8746 16.6417 43.2484C16.6389 44.7808 17.0338 46.4574 17.6469 47.9507C18.2632 49.4515 19.0722 50.7004 19.8447 51.4118C19.8543 51.4205 19.8635 51.4296 19.8725 51.4389C20.589 52.179 21.3284 52.32 22.0047 52.1003C22.7296 51.8648 23.5131 51.1698 24.1334 49.9692C24.305 49.6372 24.7127 49.5074 25.0442 49.6792C25.3756 49.8511 25.5052 50.2596 25.3336 50.5916C24.6142 51.9839 23.5981 53.0059 22.4216 53.3881C21.2018 53.7844 19.9438 53.4486 18.916 52.3954C17.9539 51.5035 17.0548 50.0676 16.3971 48.4657C15.733 46.8482 15.2871 44.9945 15.2902 43.246C15.2909 42.8722 15.594 42.5696 15.9672 42.5703Z" fill="#E2652F"/>
<path fill-rule="evenodd" clip-rule="evenodd" d="M19.4797 39.3428C19.8523 39.3225 20.1708 39.6087 20.1911 39.982C20.385 43.5575 21.4375 46.6214 24.337 49.2852C24.4485 49.3867 24.6296 49.4488 24.972 49.5222L24.9763 49.5232L24.9763 49.5232C25.3402 49.6038 25.9392 49.4945 26.5891 49.174C27.227 48.8595 27.759 48.417 28.0111 48.0229L28.014 48.0184L28.014 48.0184C28.1465 47.8149 28.2415 47.5899 28.3009 47.3609C28.3949 46.9991 28.7638 46.7821 29.125 46.8761C29.4861 46.9702 29.7028 47.3398 29.6089 47.7016C29.5162 48.0588 29.3657 48.4199 29.1474 48.7558C28.7196 49.4231 27.9605 50.0067 27.1859 50.3887C26.4232 50.7648 25.4883 51.0222 24.6869 50.8456L24.6867 50.8456C24.3732 50.7783 23.841 50.6641 23.4262 50.2854L23.4246 50.284C20.2056 47.3271 19.0499 43.8967 18.8416 40.0555C18.8214 39.6822 19.107 39.3631 19.4797 39.3428Z" fill="#E2652F"/>
<path fill-rule="evenodd" clip-rule="evenodd" d="M23.7031 37.2747C24.0692 37.2023 24.4246 37.4409 24.4969 37.8077C24.804 39.3667 25.4565 41.1071 26.1178 42.576C26.7824 44.052 27.4259 45.1883 27.69 45.5527C28.0563 46.0502 28.5774 46.3516 29.1364 46.4469C29.7165 46.5417 30.3328 46.4139 30.8399 46.0408L30.8412 46.0398C31.8471 45.3033 32.0673 43.8896 31.333 42.8833L31.3324 42.8824C30.6736 41.9765 30.0468 41.0074 29.4927 40.0703C29.3025 39.7486 29.4086 39.3334 29.7297 39.1429C30.0507 38.9523 30.4652 39.0586 30.6554 39.3803C31.1909 40.2859 31.7943 41.2183 32.4244 42.0847C33.5995 43.6958 33.2457 45.9556 31.6393 47.1324C30.823 47.7328 29.835 47.9336 28.9159 47.7826L28.9125 47.782C28.0198 47.6305 27.1829 47.1461 26.6006 46.3539L26.5982 46.3506L26.5982 46.3506C26.2522 45.8741 25.5627 44.6358 24.8859 43.1326C24.2049 41.62 23.5066 39.7732 23.171 38.0698C23.0988 37.7031 23.337 37.347 23.7031 37.2747Z" fill="#E2652F"/>
<path fill-rule="evenodd" clip-rule="evenodd" d="M160.674 156.779C160.917 156.495 161.344 156.463 161.627 156.707C163.941 158.699 166.233 159.697 167.662 160.319C167.985 160.459 168.263 160.581 168.488 160.69C168.824 160.853 168.964 161.258 168.801 161.594C168.639 161.931 168.235 162.071 167.899 161.908C167.713 161.818 167.468 161.712 167.174 161.584C165.766 160.974 163.237 159.879 160.746 157.733C160.463 157.489 160.431 157.062 160.674 156.779Z" fill="#E2652F"/>
<path fill-rule="evenodd" clip-rule="evenodd" d="M159.485 160.614C159.717 160.321 160.142 160.272 160.435 160.504C160.979 160.937 163.01 162.391 165.172 163.817C166.25 164.527 167.351 165.224 168.306 165.778C169.283 166.344 170.045 166.723 170.471 166.846C170.83 166.948 171.037 167.323 170.935 167.683C170.832 168.042 170.458 168.25 170.099 168.147C169.491 167.973 168.594 167.509 167.629 166.95C166.642 166.378 165.518 165.665 164.429 164.947C162.257 163.516 160.187 162.035 159.594 161.565C159.302 161.332 159.253 160.906 159.485 160.614Z" fill="#E2652F"/>
<path fill-rule="evenodd" clip-rule="evenodd" d="M158.022 164.226C158.314 163.993 158.739 164.04 158.972 164.332C159.583 165.097 160.718 166.133 161.934 167.18C162.435 167.61 162.95 168.044 163.437 168.453C164.101 169.012 164.711 169.524 165.153 169.921C165.43 170.17 165.454 170.598 165.205 170.876C164.956 171.155 164.529 171.178 164.251 170.929C163.819 170.541 163.243 170.058 162.6 169.517C162.113 169.107 161.586 168.665 161.054 168.207C159.85 167.171 158.619 166.057 157.917 165.178C157.684 164.886 157.731 164.46 158.022 164.226Z" fill="#E2652F"/>
<mask id="mask1_401_18919" style="mask-type:alpha" maskUnits="userSpaceOnUse" x="65" y="154" width="29" height="18">
<path d="M90.9515 157.917L91.9182 158.205C93.0372 158.539 93.8047 159.566 93.8047 160.74V171.921L65.1028 171.305C65.9816 167.196 70.0827 162.501 72.9359 158.023C73.7151 155.675 75.9707 154.102 78.4314 154.272C80.1539 154.39 81.8705 154.666 83.5754 155.088C85.4209 155.546 86.8445 156.943 87.4421 158.751C87.6941 159.519 87.5359 160.159 88.2389 160.159C90.5883 160.153 90.9515 157.917 90.9515 157.917Z" fill="#717171"/>
</mask>
<g mask="url(#mask1_401_18919)">
<path d="M90.9515 157.917L91.9182 158.205C93.0372 158.539 93.8047 159.566 93.8047 160.74V171.921L65.1028 171.305C65.9816 167.196 70.0827 162.501 72.9359 158.023C73.7151 155.675 75.9707 154.102 78.4314 154.272C80.1539 154.39 81.8705 154.666 83.5754 155.088C85.4209 155.546 86.8445 156.943 87.4421 158.751C87.6941 159.519 87.5359 160.159 88.2389 160.159C90.5883 160.153 90.9515 157.917 90.9515 157.917Z" fill="#CF693F"/>
<path d="M70.581 160.095C75.5316 158.398 82.1227 159.654 87.8818 163.845L86.8507 165.271C80.9685 160.993 74.3833 160.03 69.5967 162.413L69.374 161.967" fill="#FFE5B2"/>
<path d="M87.4362 162.332C82.1575 158.493 76.5683 158.094 71.2544 160.741L71.8403 158.98C77.7517 156.04 82.6555 156.68 88.4674 160.911L87.4362 162.332Z" fill="#FFE5B2"/>
<path fill-rule="evenodd" clip-rule="evenodd" d="M88.4905 159.096C88.8569 159.167 89.0965 159.523 89.0256 159.89C88.7313 161.414 88.4084 162.857 88.0015 164.082C87.5992 165.292 87.0907 166.366 86.3828 167.086C86.1209 167.352 85.693 167.355 85.4272 167.093C85.1614 166.83 85.1583 166.401 85.4202 166.135C85.9075 165.64 86.3365 164.806 86.7192 163.654C87.0974 162.516 87.4072 161.143 87.6988 159.632C87.7696 159.265 88.1241 159.025 88.4905 159.096Z" fill="#B25735"/>
</g>
<path d="M65.2681 170.131C65.1621 170.891 65.1028 171.669 65.1028 172.46V176H93.8106V170.131H65.2681Z" fill="#FFE5B2"/>
<path d="M74.0566 38.7467L58.9762 53.8891L53.176 48.0787C52.8609 47.71 52.4731 47.4106 52.037 47.1993C51.6009 46.9879 51.1259 46.8691 50.6417 46.8504C50.1576 46.8316 49.6749 46.9134 49.2238 47.0904C48.7727 47.2674 48.363 47.536 48.0204 47.8792C47.6778 48.2224 47.4098 48.6328 47.2331 49.0847C47.0563 49.5366 46.9747 50.0202 46.9934 50.5052C47.0121 50.9901 47.1307 51.466 47.3417 51.9029C47.5527 52.3398 47.8516 52.7283 48.2196 53.044L56.4804 61.3547C56.8088 61.6811 57.1984 61.9393 57.6267 62.1146C58.055 62.2898 58.5136 62.3786 58.9762 62.376C59.8984 62.3721 60.7821 62.0053 61.4369 61.3547L79.0131 43.7472C79.3425 43.4198 79.6041 43.0304 79.7825 42.6012C79.961 42.1721 80.0529 41.7118 80.0529 41.2469C80.0529 40.7821 79.961 40.3218 79.7825 39.8927C79.6041 39.4635 79.3425 39.074 79.0131 38.7467C78.3544 38.0908 77.4635 37.7227 76.5348 37.7227C75.6061 37.7227 74.7152 38.0908 74.0566 38.7467Z" fill="black"/>
<path fill-rule="evenodd" clip-rule="evenodd" d="M41.5855 63.7586C41.7806 64.0773 41.6809 64.4941 41.3628 64.6896L28.3671 72.6759C28.049 72.8714 27.633 72.7715 27.4378 72.4529C27.2427 72.1342 27.3424 71.7174 27.6605 71.5219L40.6562 63.5356C40.9743 63.3401 41.3903 63.4399 41.5855 63.7586ZM79.8269 77.899C80.1977 77.9419 80.4635 78.2777 80.4207 78.6491L79.5419 86.279C79.4991 86.6504 79.1639 86.9167 78.7932 86.8739C78.4225 86.831 78.1566 86.4952 78.1994 86.1238L79.0782 78.4939C79.121 78.1225 79.4562 77.8562 79.8269 77.899ZM152.511 139.33C152.6 139.693 152.378 140.059 152.015 140.148L137.709 143.649C137.347 143.738 136.981 143.515 136.892 143.152C136.804 142.789 137.026 142.423 137.389 142.334L151.695 138.833C152.057 138.744 152.423 138.967 152.511 139.33Z" fill="#318C6E"/>
<mask id="mask2_401_18919" style="mask-type:alpha" maskUnits="userSpaceOnUse" x="96" y="35" width="8" height="4">
<path d="M96.9831 35.7081C96.7135 36.3504 97.7995 37.8996 99.6007 38.6255C101.402 39.3514 103.271 38.806 103.506 38.337C103.74 37.868 102.689 36.1456 100.888 35.4196C99.0869 34.6937 97.2527 35.0658 96.9831 35.7081Z" fill="white"/>
</mask>
<g mask="url(#mask2_401_18919)">
<path d="M104.799 36.375L97.4066 33.3956L95.6899 37.6701L103.082 40.6495L104.799 36.375Z" fill="white"/>
<path d="M96.7275 35.1805C96.2535 36.3609 96.8465 37.7116 98.052 38.1975C99.2575 38.6833 100.619 38.1203 101.093 36.94C101.567 35.7596 100.974 34.4089 99.7686 33.923C98.5631 33.4371 97.2015 34.0001 96.7275 35.1805Z" fill="black"/>
</g>
<path d="M125.308 43.6891L120.498 57.1882L114.762 53.0798L121.206 41.3414L117.691 40.1676L119.449 31.9508L115.348 38.9938L108.903 36.0592L111.247 31.3638L107.304 34.9147L97.1856 31.3638C97.1856 31.3638 102.459 16.6909 118.277 24.9078C134.096 33.1246 125.308 43.6891 125.308 43.6891Z" fill="black"/>
<mask id="mask3_401_18919" style="mask-type:alpha" maskUnits="userSpaceOnUse" x="109" y="39" width="8" height="5">
<path d="M109.739 40.2667C109.469 40.909 110.555 42.4581 112.357 43.1841C114.158 43.91 116.027 43.3646 116.262 42.8956C116.496 42.4266 115.445 40.7042 113.644 39.9782C111.843 39.2523 110.009 39.6244 109.739 40.2667Z" fill="white"/>
</mask>
<g mask="url(#mask3_401_18919)">
<path d="M117.555 40.9355L110.162 37.9562L108.446 42.2306L115.838 45.21L117.555 40.9355Z" fill="white"/>
<path d="M109.484 39.7391C109.01 40.9195 109.603 42.2702 110.808 42.7561C112.014 43.2419 113.375 42.6789 113.849 41.4986C114.323 40.3182 113.73 38.9675 112.525 38.4816C111.319 37.9957 109.958 38.5587 109.484 39.7391Z" fill="black"/>
</g>
</svg>
