<svg width="40" height="30" viewBox="0 0 40 30" fill="none" xmlns="http://www.w3.org/2000/svg">
<path d="M12.2917 17.7493C13.5956 17.7493 14.8462 17.2313 15.7683 16.3093C16.6903 15.3872 17.2083 14.1367 17.2083 12.8327C17.2083 11.5287 16.6903 10.2781 15.7683 9.35607C14.8462 8.43402 13.5956 7.91602 12.2917 7.91602C10.9877 7.91602 9.7371 8.43402 8.81505 9.35607C7.893 10.2781 7.37499 11.5287 7.37499 12.8327C7.37499 14.1367 7.893 15.3872 8.81505 16.3093C9.7371 17.2313 10.9877 17.7493 12.2917 17.7493V17.7493ZM22.125 11.6035C22.125 11.2775 22.2545 10.9649 22.485 10.7344C22.7155 10.5038 23.0281 10.3743 23.3541 10.3743H33.1875C33.5135 10.3743 33.8261 10.5038 34.0566 10.7344C34.2871 10.9649 34.4166 11.2775 34.4166 11.6035C34.4166 11.9295 34.2871 12.2421 34.0566 12.4727C33.8261 12.7032 33.5135 12.8327 33.1875 12.8327H23.3541C23.0281 12.8327 22.7155 12.7032 22.485 12.4727C22.2545 12.2421 22.125 11.9295 22.125 11.6035ZM22.125 17.7493C22.125 17.4233 22.2545 17.1107 22.485 16.8802C22.7155 16.6497 23.0281 16.5202 23.3541 16.5202H33.1875C33.5135 16.5202 33.8261 16.6497 34.0566 16.8802C34.2871 17.1107 34.4166 17.4233 34.4166 17.7493C34.4166 18.0753 34.2871 18.388 34.0566 18.6185C33.8261 18.849 33.5135 18.9785 33.1875 18.9785H23.3541C23.0281 18.9785 22.7155 18.849 22.485 18.6185C22.2545 18.388 22.125 18.0753 22.125 17.7493ZM24.5833 23.8952C24.5833 23.5692 24.7128 23.2565 24.9433 23.026C25.1738 22.7955 25.4865 22.666 25.8125 22.666H33.1875C33.5135 22.666 33.8261 22.7955 34.0566 23.026C34.2871 23.2565 34.4166 23.5692 34.4166 23.8952C34.4166 24.2212 34.2871 24.5338 34.0566 24.7643C33.8261 24.9948 33.5135 25.1243 33.1875 25.1243H25.8125C25.4865 25.1243 25.1738 24.9948 24.9433 24.7643C24.7128 24.5338 24.5833 24.2212 24.5833 23.8952Z" fill="#13563E"/>
<path d="M4.91666 0C3.61268 0 2.36211 0.518004 1.44006 1.44006C0.518004 2.36211 0 3.61268 0 4.91666L0 24.5833C0 25.8873 0.518004 27.1379 1.44006 28.0599C2.36211 28.982 3.61268 29.5 4.91666 29.5H34.4166C35.7206 29.5 36.9712 28.982 37.8932 28.0599C38.8153 27.1379 39.3333 25.8873 39.3333 24.5833V4.91666C39.3333 3.61268 38.8153 2.36211 37.8932 1.44006C36.9712 0.518004 35.7206 0 34.4166 0H4.91666ZM2.45833 4.91666C2.45833 4.26467 2.71733 3.63939 3.17836 3.17836C3.63939 2.71733 4.26467 2.45833 4.91666 2.45833H34.4166C35.0686 2.45833 35.6939 2.71733 36.1549 3.17836C36.616 3.63939 36.875 4.26467 36.875 4.91666V24.5833C36.875 25.2353 36.616 25.8606 36.1549 26.3216C35.6939 26.7826 35.0686 27.0416 34.4166 27.0416H22.0266C22.0906 26.6409 22.125 26.2304 22.125 25.8125C22.125 21.0605 17.7246 17.2083 12.2917 17.2083C7.16358 17.2083 2.95 20.6451 2.49766 25.0283C2.47116 24.8814 2.45799 24.7325 2.45833 24.5833V4.91666Z" fill="#13563E"/>
</svg>
